<?xml version="1.0" encoding="utf-8"?>
<!-- Generator: Adobe Illustrator 25.2.1, SVG Export Plug-In . SVG Version: 6.00 Build 0)  -->
<svg version="1.1" id="Layer_1" xmlns="http://www.w3.org/2000/svg" xmlns:xlink="http://www.w3.org/1999/xlink" x="0px" y="0px"
	 viewBox="0 0 800 600" style="enable-background:new 0 0 800 600;" xml:space="preserve">
<style type="text/css">
	.st0{fill:#FFFFFF;}
</style>
<g>
	<g id="Snowflake">
		<g>
			<path class="st0" d="M400,506c-3.3,0-6-2.7-6-6V300c0-3.3,2.7-6,6-6s6,2.7,6,6v200C406,503.3,403.3,506,400,506z"/>
			<path class="st0" d="M363,391.2c-1.5,0-3.1-0.6-4.2-1.8c-2.3-2.3-2.3-6.1,0-8.5l41.3-41.3l41.3,41.3c2.3,2.3,2.3,6.1,0,8.5
				c-2.3,2.3-6.1,2.3-8.5,0L400,356.6l-32.8,32.8C366.1,390.6,364.5,391.2,363,391.2z"/>
			<path class="st0" d="M405.9,442.3c-1.5,0-3.1-0.6-4.2-1.8l-1.6-1.6l-1.6,1.6c-2.3,2.3-6.1,2.3-8.5,0c-2.3-2.3-2.3-6.1,0-8.5
				l10.1-10.1l10.1,10.1c2.3,2.3,2.3,6.1,0,8.5C408.9,441.7,407.4,442.3,405.9,442.3z"/>
		</g>
		<g>
			<path class="st0" d="M226.8,406c-2.1,0-4.1-1.1-5.2-3c-1.7-2.9-0.7-6.5,2.2-8.2l173.2-100c2.9-1.7,6.5-0.7,8.2,2.2
				c1.7,2.9,0.7,6.5-2.2,8.2l-173.2,100C228.9,405.7,227.8,406,226.8,406z"/>
			<path class="st0" d="M344.7,380.6c-0.5,0-1-0.1-1.6-0.2c-3.2-0.9-5.1-4.1-4.2-7.3l12-44.8l-44.8-12c-3.2-0.9-5.1-4.1-4.2-7.3
				s4.2-5.1,7.3-4.2l56.4,15.1l-15.1,56.4C349.8,378.9,347.4,380.6,344.7,380.6z"/>
			<path class="st0" d="M284.9,379.2c-0.5,0-1-0.1-1.6-0.2c-3.2-0.9-5.1-4.1-4.2-7.3l0.6-2.2l-2.2-0.6c-3.2-0.9-5.1-4.1-4.2-7.3
				c0.9-3.2,4.2-5.1,7.3-4.2l13.8,3.7l-3.7,13.8C290,377.5,287.6,379.2,284.9,379.2z"/>
		</g>
		<g>
			<path class="st0" d="M400,306c-1,0-2-0.3-3-0.8l-173.2-100c-2.9-1.7-3.9-5.3-2.2-8.2c1.7-2.9,5.3-3.9,8.2-2.2l173.2,100
				c2.9,1.7,3.9,5.3,2.2,8.2C404.1,304.9,402.1,306,400,306z"/>
			<path class="st0" d="M307.7,295.5c-2.6,0-5.1-1.8-5.8-4.4c-0.9-3.2,1-6.5,4.2-7.3l44.8-12l-12-44.8c-0.9-3.2,1-6.5,4.2-7.3
				c3.2-0.9,6.5,1,7.3,4.2l15.1,56.4l-56.4,15.1C308.8,295.4,308.2,295.5,307.7,295.5z"/>
			<path class="st0" d="M279,243c-2.6,0-5.1-1.8-5.8-4.4c-0.9-3.2,1-6.5,4.2-7.3l2.2-0.6l-0.6-2.2c-0.9-3.2,1-6.5,4.2-7.3
				c3.2-0.9,6.5,1,7.3,4.2l3.7,13.8l-13.8,3.7C280.1,242.9,279.6,243,279,243z"/>
		</g>
		<g>
			<path class="st0" d="M400,306c-3.3,0-6-2.7-6-6V100c0-3.3,2.7-6,6-6s6,2.7,6,6v200C406,303.3,403.3,306,400,306z"/>
			<path class="st0" d="M400,260.3l-41.3-41.3c-2.3-2.3-2.3-6.1,0-8.5c2.3-2.3,6.1-2.3,8.5,0l32.8,32.8l32.8-32.8
				c2.3-2.3,6.1-2.3,8.5,0c2.3,2.3,2.3,6.1,0,8.5L400,260.3z"/>
			<path class="st0" d="M400,178.1L389.9,168c-2.3-2.3-2.3-6.1,0-8.5c2.3-2.3,6.1-2.3,8.5,0l1.6,1.6l1.6-1.6c2.3-2.3,6.1-2.3,8.5,0
				c2.3,2.3,2.3,6.1,0,8.5L400,178.1z"/>
		</g>
		<g>
			<path class="st0" d="M400,306c-2.1,0-4.1-1.1-5.2-3c-1.7-2.9-0.7-6.5,2.2-8.2l173.2-100c2.9-1.7,6.5-0.7,8.2,2.2
				c1.7,2.9,0.7,6.5-2.2,8.2L403,305.2C402.1,305.7,401,306,400,306z"/>
			<path class="st0" d="M492.3,295.5c-0.5,0-1-0.1-1.6-0.2l-56.4-15.1l15.1-56.4c0.9-3.2,4.1-5.1,7.3-4.2c3.2,0.9,5.1,4.1,4.2,7.3
				l-12,44.8l44.8,12c3.2,0.9,5.1,4.1,4.2,7.3C497.4,293.7,494.9,295.5,492.3,295.5z"/>
			<path class="st0" d="M521,243c-0.5,0-1-0.1-1.6-0.2l-13.8-3.7l3.7-13.8c0.9-3.2,4.1-5.1,7.3-4.2c3.2,0.9,5.1,4.1,4.2,7.3
				l-0.6,2.2l2.2,0.6c3.2,0.9,5.1,4.1,4.2,7.3C526,241.2,523.6,243,521,243z"/>
		</g>
		<g>
			<path class="st0" d="M573.2,406c-1,0-2-0.3-3-0.8L397,305.2c-2.9-1.7-3.9-5.3-2.2-8.2c1.7-2.9,5.3-3.9,8.2-2.2l173.2,100
				c2.9,1.7,3.9,5.3,2.2,8.2C577.3,404.9,575.3,406,573.2,406z"/>
			<path class="st0" d="M455.3,380.6c-2.6,0-5.1-1.8-5.8-4.4l-15.1-56.4l56.4-15.1c3.2-0.9,6.5,1,7.3,4.2c0.9,3.2-1,6.5-4.2,7.3
				l-44.8,12l12,44.8c0.9,3.2-1,6.5-4.2,7.3C456.3,380.6,455.8,380.6,455.3,380.6z"/>
			<path class="st0" d="M515.1,379.2c-2.6,0-5.1-1.8-5.8-4.4l-3.7-13.8l13.8-3.7c3.2-0.9,6.5,1,7.3,4.2c0.9,3.2-1,6.5-4.2,7.3
				l-2.2,0.6l0.6,2.2c0.9,3.2-1,6.5-4.2,7.3C516.1,379.2,515.6,379.2,515.1,379.2z"/>
		</g>
	</g>
</g>
</svg>
