<?xml version="1.0" encoding="utf-8"?>
<!-- Generator: Adobe Illustrator 25.2.1, SVG Export Plug-In . SVG Version: 6.00 Build 0)  -->
<svg version="1.1" id="Layer_1" xmlns="http://www.w3.org/2000/svg" xmlns:xlink="http://www.w3.org/1999/xlink" x="0px" y="0px"
	 viewBox="0 0 800 600" style="enable-background:new 0 0 800 600;" xml:space="preserve">
<style type="text/css">
	.st0{fill:#FFFFFF;}
</style>
<g>
	<g id="Snowflake">
		<g>
			<path class="st0" d="M400,504c-2.2,0-4-1.8-4-4V300c0-2.2,1.8-4,4-4s4,1.8,4,4v200C404,502.2,402.2,504,400,504z"/>
			<path class="st0" d="M447.6,377.8c-1,0-2-0.4-2.8-1.2L400,331.9l-44.8,44.8c-1.6,1.6-4.1,1.6-5.7,0c-1.6-1.6-1.6-4.1,0-5.7
				l50.4-50.4l50.4,50.4c1.6,1.6,1.6,4.1,0,5.7C449.7,377.4,448.6,377.8,447.6,377.8z"/>
			<path class="st0" d="M359.2,424.4c-1,0-2-0.4-2.8-1.2c-1.6-1.6-1.6-4.1,0-5.7L400,374l43.6,43.6c1.6,1.6,1.6,4.1,0,5.7
				c-1.6,1.6-4.1,1.6-5.7,0l-38-38l-38,38C361.3,424,360.2,424.4,359.2,424.4z"/>
			<path class="st0" d="M460.1,484.1c-1,0-2-0.4-2.8-1.2L400,425.6l-57.3,57.3c-1.6,1.6-4.1,1.6-5.7,0c-1.6-1.6-1.6-4.1,0-5.7l63-63
				l63,63c1.6,1.6,1.6,4.1,0,5.7C462.2,483.7,461.2,484.1,460.1,484.1z"/>
		</g>
		<g>
			<path class="st0" d="M226.8,404c-1.4,0-2.7-0.7-3.5-2c-1.1-1.9-0.4-4.4,1.5-5.5l173.2-100c1.9-1.1,4.4-0.4,5.5,1.5
				c1.1,1.9,0.4,4.4-1.5,5.5l-173.2,100C228.2,403.8,227.5,404,226.8,404z"/>
			<path class="st0" d="M359.9,382.1c-0.3,0-0.7,0-1-0.1c-2.1-0.6-3.4-2.8-2.8-4.9l16.4-61.2l-61.2-16.4c-2.1-0.6-3.4-2.8-2.8-4.9
				c0.6-2.1,2.8-3.4,4.9-2.8l68.9,18.5l-18.5,68.9C363.3,381,361.7,382.1,359.9,382.1z"/>
			<path class="st0" d="M316.1,399.5c-0.3,0-0.7,0-1-0.1c-2.1-0.6-3.4-2.8-2.8-4.9l13.9-51.8l-51.8-13.9c-2.1-0.6-3.4-2.8-2.8-4.9
				c0.6-2.1,2.8-3.4,4.9-2.8l59.6,16l-16,59.6C319.5,398.3,317.9,399.5,316.1,399.5z"/>
			<path class="st0" d="M274.1,446.1c-0.3,0-0.7,0-1-0.1c-2.1-0.6-3.4-2.8-2.8-4.9l21-78.3l-78.3-21c-2.1-0.6-3.4-2.8-2.8-4.9
				s2.8-3.4,4.9-2.8l86,23l-23,86C277.5,444.9,275.9,446.1,274.1,446.1z"/>
		</g>
		<g>
			<path class="st0" d="M400,304c-0.7,0-1.4-0.2-2-0.5l-173.2-100c-1.9-1.1-2.6-3.6-1.5-5.5c1.1-1.9,3.6-2.6,5.5-1.5l173.2,100
				c1.9,1.1,2.6,3.6,1.5,5.5C402.7,303.3,401.4,304,400,304z"/>
			<path class="st0" d="M312.3,308.3c-1.8,0-3.4-1.2-3.9-3c-0.6-2.1,0.7-4.3,2.8-4.9l61.2-16.4L356,222.9c-0.6-2.1,0.7-4.3,2.8-4.9
				c2.1-0.6,4.3,0.7,4.9,2.8l18.5,68.9l-68.9,18.5C313,308.3,312.6,308.3,312.3,308.3z"/>
			<path class="st0" d="M275.3,279.1c-1.8,0-3.4-1.2-3.9-3c-0.6-2.1,0.7-4.3,2.8-4.9l51.8-13.9l-13.9-51.8c-0.6-2.1,0.7-4.3,2.8-4.9
				c2.1-0.6,4.3,0.7,4.9,2.8l16,59.6l-59.6,16C276,279.1,275.7,279.1,275.3,279.1z"/>
			<path class="st0" d="M214,266.1c-1.8,0-3.4-1.2-3.9-3c-0.6-2.1,0.7-4.3,2.8-4.9l78.3-21l-21-78.3c-0.6-2.1,0.7-4.3,2.8-4.9
				s4.3,0.7,4.9,2.8l23,86l-86,23C214.7,266,214.3,266.1,214,266.1z"/>
		</g>
		<g>
			<path class="st0" d="M400,304c-2.2,0-4-1.8-4-4V100c0-2.2,1.8-4,4-4s4,1.8,4,4v200C404,302.2,402.2,304,400,304z"/>
			<path class="st0" d="M400,279.5L349.6,229c-1.6-1.6-1.6-4.1,0-5.7c1.6-1.6,4.1-1.6,5.7,0l44.8,44.8l44.8-44.8
				c1.6-1.6,4.1-1.6,5.7,0c1.6,1.6,1.6,4.1,0,5.7L400,279.5z"/>
			<path class="st0" d="M400,226l-43.6-43.6c-1.6-1.6-1.6-4.1,0-5.7c1.6-1.6,4.1-1.6,5.7,0l38,38l38-38c1.6-1.6,4.1-1.6,5.7,0
				c1.6,1.6,1.6,4.1,0,5.7L400,226z"/>
			<path class="st0" d="M400,185.7l-63-63c-1.6-1.6-1.6-4.1,0-5.7c1.6-1.6,4.1-1.6,5.7,0l57.3,57.3l57.3-57.3c1.6-1.6,4.1-1.6,5.7,0
				c1.6,1.6,1.6,4.1,0,5.7L400,185.7z"/>
		</g>
		<g>
			<path class="st0" d="M400,304c-1.4,0-2.7-0.7-3.5-2c-1.1-1.9-0.4-4.4,1.5-5.5l173.2-100c1.9-1.1,4.4-0.4,5.5,1.5
				c1.1,1.9,0.4,4.4-1.5,5.5L402,303.5C401.4,303.8,400.7,304,400,304z"/>
			<path class="st0" d="M487.7,308.3c-0.3,0-0.7,0-1-0.1l-68.9-18.5l18.5-68.9c0.6-2.1,2.8-3.4,4.9-2.8c2.1,0.6,3.4,2.8,2.8,4.9
				l-16.4,61.2l61.2,16.4c2.1,0.6,3.4,2.8,2.8,4.9C491.1,307.2,489.5,308.3,487.7,308.3z"/>
			<path class="st0" d="M524.7,279.1c-0.3,0-0.7,0-1-0.1L464,263l16-59.6c0.6-2.1,2.8-3.4,4.9-2.8c2.1,0.6,3.4,2.8,2.8,4.9
				l-13.9,51.8l51.8,13.9c2.1,0.6,3.4,2.8,2.8,4.9C528,277.9,526.4,279.1,524.7,279.1z"/>
			<path class="st0" d="M586,266.1c-0.3,0-0.7,0-1-0.1l-86-23l23-86c0.6-2.1,2.8-3.4,4.9-2.8c2.1,0.6,3.4,2.8,2.8,4.9l-21,78.3
				l78.3,21c2.1,0.6,3.4,2.8,2.8,4.9C589.4,264.9,587.8,266.1,586,266.1z"/>
		</g>
		<g>
			<path class="st0" d="M573.2,404c-0.7,0-1.4-0.2-2-0.5L398,303.5c-1.9-1.1-2.6-3.6-1.5-5.5c1.1-1.9,3.6-2.6,5.5-1.5l173.2,100
				c1.9,1.1,2.6,3.6,1.5,5.5C575.9,403.3,574.6,404,573.2,404z"/>
			<path class="st0" d="M440.1,382.1c-1.8,0-3.4-1.2-3.9-3l-18.5-68.9l68.9-18.5c2.1-0.6,4.3,0.7,4.9,2.8c0.6,2.1-0.7,4.3-2.8,4.9
				l-61.2,16.4l16.4,61.2c0.6,2.1-0.7,4.3-2.8,4.9C440.8,382.1,440.5,382.1,440.1,382.1z"/>
			<path class="st0" d="M483.9,399.5c-1.8,0-3.4-1.2-3.9-3L464,337l59.6-16c2.1-0.6,4.3,0.7,4.9,2.8c0.6,2.1-0.7,4.3-2.8,4.9
				l-51.8,13.9l13.9,51.8c0.6,2.1-0.7,4.3-2.8,4.9C484.6,399.5,484.2,399.5,483.9,399.5z"/>
			<path class="st0" d="M525.9,446.1c-1.8,0-3.4-1.2-3.9-3l-23-86l86-23c2.1-0.6,4.3,0.7,4.9,2.8c0.6,2.1-0.7,4.3-2.8,4.9l-78.3,21
				l21,78.3c0.6,2.1-0.7,4.3-2.8,4.9C526.6,446.1,526.2,446.1,525.9,446.1z"/>
		</g>
	</g>
</g>
</svg>
