<?xml version="1.0" encoding="utf-8"?>
<!-- Generator: Adobe Illustrator 25.2.1, SVG Export Plug-In . SVG Version: 6.00 Build 0)  -->
<svg version="1.1" id="Layer_1" xmlns="http://www.w3.org/2000/svg" xmlns:xlink="http://www.w3.org/1999/xlink" x="0px" y="0px"
	 viewBox="0 0 800 600" style="enable-background:new 0 0 800 600;" xml:space="preserve">
<style type="text/css">
	.st0{fill:#FFFFFF;}
</style>
<g>
	<g id="Snowflake">
		<g>
			<path class="st0" d="M400,506c-3.3,0-6-2.7-6-6V300c0-3.3,2.7-6,6-6s6,2.7,6,6v200C406,503.3,403.3,506,400,506z"/>
			<path class="st0" d="M433.3,389.3c-1.5,0-3.1-0.6-4.2-1.8l-29-29l-29,29c-2.3,2.3-6.1,2.3-8.5,0c-2.3-2.3-2.3-6.1,0-8.5
				l37.5-37.5l37.5,37.5c2.3,2.3,2.3,6.1,0,8.5C436.3,388.7,434.8,389.3,433.3,389.3z"/>
			<path class="st0" d="M441,459.8c-1.5,0-3.1-0.6-4.2-1.8L400,421.3l-36.7,36.7c-2.3,2.3-6.1,2.3-8.5,0c-2.3-2.3-2.3-6.1,0-8.5
				l45.2-45.2l45.2,45.2c2.3,2.3,2.3,6.1,0,8.5C444.1,459.2,442.5,459.8,441,459.8z"/>
		</g>
		<g>
			<path class="st0" d="M226.8,406c-2.1,0-4.1-1.1-5.2-3c-1.7-2.9-0.7-6.5,2.2-8.2l173.2-100c2.9-1.7,6.5-0.7,8.2,2.2
				c1.7,2.9,0.7,6.5-2.2,8.2l-173.2,100C228.9,405.7,227.8,406,226.8,406z"/>
			<path class="st0" d="M344.5,376.5c-0.5,0-1-0.1-1.6-0.2c-3.2-0.9-5.1-4.1-4.2-7.3l10.6-39.6l-39.6-10.6c-3.2-0.9-5.1-4.1-4.2-7.3
				s4.2-5.1,7.3-4.2l51.2,13.7L350.3,372C349.6,374.7,347.1,376.5,344.5,376.5z"/>
			<path class="st0" d="M287.3,418.4c-0.5,0-1-0.1-1.6-0.2c-3.2-0.9-5.1-4.1-4.2-7.3l13.4-50.2l-50.2-13.4c-3.2-0.9-5.1-4.1-4.2-7.3
				c0.9-3.2,4.2-5.1,7.3-4.2l61.8,16.6L293.1,414C292.4,416.6,289.9,418.4,287.3,418.4z"/>
		</g>
		<g>
			<path class="st0" d="M400,306c-1,0-2-0.3-3-0.8l-173.2-100c-2.9-1.7-3.9-5.3-2.2-8.2c1.7-2.9,5.3-3.9,8.2-2.2l173.2,100
				c2.9,1.7,3.9,5.3,2.2,8.2C404.1,304.9,402.1,306,400,306z"/>
			<path class="st0" d="M311.2,293.2c-2.6,0-5.1-1.8-5.8-4.4c-0.9-3.2,1-6.5,4.2-7.3l39.6-10.6l-10.6-39.6c-0.9-3.2,1-6.5,4.2-7.3
				c3.2-0.9,6.5,1,7.3,4.2l13.7,51.2L312.8,293C312.3,293.1,311.7,293.2,311.2,293.2z"/>
			<path class="st0" d="M246.3,264.6c-2.6,0-5.1-1.8-5.8-4.4c-0.9-3.2,1-6.5,4.2-7.3l50.2-13.4l-13.4-50.2c-0.9-3.2,1-6.5,4.2-7.3
				c3.2-0.9,6.5,1,7.3,4.2l16.6,61.8l-61.8,16.6C247.3,264.5,246.8,264.6,246.3,264.6z"/>
		</g>
		<g>
			<path class="st0" d="M400,306c-3.3,0-6-2.7-6-6V100c0-3.3,2.7-6,6-6s6,2.7,6,6v200C406,303.3,403.3,306,400,306z"/>
			<path class="st0" d="M400,258.4l-37.5-37.5c-2.3-2.3-2.3-6.1,0-8.5s6.1-2.3,8.5,0l29,29l29-29c2.3-2.3,6.1-2.3,8.5,0
				c2.3,2.3,2.3,6.1,0,8.5L400,258.4z"/>
			<path class="st0" d="M400,195.6l-45.2-45.2c-2.3-2.3-2.3-6.1,0-8.5s6.1-2.3,8.5,0l36.7,36.7l36.7-36.7c2.3-2.3,6.1-2.3,8.5,0
				c2.3,2.3,2.3,6.1,0,8.5L400,195.6z"/>
		</g>
		<g>
			<path class="st0" d="M400,306c-2.1,0-4.1-1.1-5.2-3c-1.7-2.9-0.7-6.5,2.2-8.2l173.2-100c2.9-1.7,6.5-0.7,8.2,2.2
				c1.7,2.9,0.7,6.5-2.2,8.2L403,305.2C402.1,305.7,401,306,400,306z"/>
			<path class="st0" d="M488.8,293.2c-0.5,0-1-0.1-1.6-0.2L436,279.2l13.7-51.2c0.9-3.2,4.1-5.1,7.3-4.2c3.2,0.9,5.1,4.1,4.2,7.3
				l-10.6,39.6l39.6,10.6c3.2,0.9,5.1,4.1,4.2,7.3C493.8,291.4,491.4,293.2,488.8,293.2z"/>
			<path class="st0" d="M553.7,264.6c-0.5,0-1-0.1-1.6-0.2l-61.8-16.6l16.6-61.8c0.9-3.2,4.1-5.1,7.3-4.2c3.2,0.9,5.1,4.1,4.2,7.3
				l-13.4,50.2l50.2,13.4c3.2,0.9,5.1,4.1,4.2,7.3C558.8,262.8,556.4,264.6,553.7,264.6z"/>
		</g>
		<g>
			<path class="st0" d="M573.2,406c-1,0-2-0.3-3-0.8L397,305.2c-2.9-1.7-3.9-5.3-2.2-8.2c1.7-2.9,5.3-3.9,8.2-2.2l173.2,100
				c2.9,1.7,3.9,5.3,2.2,8.2C577.3,404.9,575.3,406,573.2,406z"/>
			<path class="st0" d="M455.5,376.5c-2.6,0-5.1-1.8-5.8-4.4L436,320.8l51.2-13.7c3.2-0.9,6.5,1,7.3,4.2c0.9,3.2-1,6.5-4.2,7.3
				l-39.6,10.6l10.6,39.6c0.9,3.2-1,6.5-4.2,7.3C456.5,376.4,456,376.5,455.5,376.5z"/>
			<path class="st0" d="M512.7,418.4c-2.6,0-5.1-1.8-5.8-4.4l-16.6-61.8l61.8-16.6c3.2-0.9,6.5,1,7.3,4.2c0.9,3.2-1,6.5-4.2,7.3
				l-50.2,13.4l13.4,50.2c0.9,3.2-1,6.5-4.2,7.3C513.8,418.3,513.2,418.4,512.7,418.4z"/>
		</g>
	</g>
</g>
</svg>
